# xmcd
#
# Track frame offsets:
#	150
#	21563
#	44177
#	59798
#	78700
#
# Disc length: 1370 seconds
#
# Revision: 2
# Processed by: cddbd v1.5.2PL0 Copyright (c) Steve Scherf et al.
# Submitted via: dBpowerAMP V4.0
#
DISCID=4e055805
DTITLE=Seven Handle Circus - Whiskey Stills and Sleeping Pills
DYEAR=2012
DGENRE=Bluegrass
TTITLE0=I've Been Around the World
TTITLE1=Walking Through the Wilderness
TTITLE2=Alabama Line
TTITLE3=Gerogia Man
TTITLE4=Cruel World
EXTD=
EXTT0=
EXTT1=
EXTT2=
EXTT3=
EXTT4=
PLAYORDER=
